<svg width="270" height="32" viewBox="0 0 270 32" fill="none" xmlns="http://www.w3.org/2000/svg">
<path fill-rule="evenodd" clip-rule="evenodd" d="M77.1188 12.2127L77.1234 24.4253L82.5487 28.0238L87.9742 31.6223L89.5184 31.6268L91.0627 31.6313V21.1499V10.6685H100.328H109.594V21.1499V31.6313H111.089H112.583V19.4806V7.32966L107.098 3.66492L101.613 0H89.3638H77.1144L77.1188 12.2127ZM85.035 5.32117L88.0738 7.34445V17.5226C88.0738 23.1206 88.0288 27.7008 87.9736 27.7008C87.9184 27.7008 86.1475 26.5343 84.0381 25.1089L80.2029 22.517L80.1513 12.2692L80.0999 2.02141L81.048 2.65965C81.5697 3.01059 83.3638 4.20827 85.035 5.32117ZM124.937 20.3077V30.8826H126.033H127.129V28.0633V25.244L129.172 23.0985L131.214 20.9528L131.769 21.5662C132.075 21.9034 133.958 24.1341 135.954 26.5233L139.583 30.8671L140.828 30.8749C141.513 30.8791 142.074 30.8426 142.074 30.7935C142.074 30.7119 135.95 23.1863 133.673 20.469L132.71 19.3202L136.844 14.8491C139.118 12.3899 141.101 10.2328 141.251 10.0554C141.504 9.75722 141.434 9.7327 140.332 9.7327H139.139L133.184 16.0554L127.229 22.3779L127.176 16.0554L127.124 9.7327H126.031H124.937V20.3077ZM142.568 10.0941C142.639 10.3037 144.656 15.0458 147.051 20.6322L151.406 30.789L152.494 30.8444C153.244 30.8826 153.613 30.8246 153.685 30.6573C153.742 30.5238 155.77 25.8033 158.193 20.1673C160.616 14.5311 162.598 9.87757 162.598 9.82628C162.598 9.77481 162.122 9.7327 161.54 9.7327H160.482L156.725 18.4828C154.659 23.2954 152.867 27.4249 152.743 27.6596C152.544 28.0371 152.067 27.029 148.632 18.9563L144.746 9.82628L143.593 9.76976C142.511 9.71661 142.447 9.73682 142.568 10.0941ZM171.976 10.1538C171.879 10.3854 169.779 15.1231 167.31 20.682L162.821 30.789L163.73 30.847C164.23 30.8789 164.749 30.8656 164.883 30.8173C165.017 30.769 165.655 29.4994 166.302 27.9957L167.478 25.2622L173.242 25.3116L179.007 25.3612L180.199 28.1219L181.392 30.8826H182.531H183.671L178.98 20.3077L174.289 9.7327H173.221C172.298 9.7327 172.128 9.79016 171.976 10.1538ZM188.103 20.3077V30.8826H192.958C195.628 30.8826 198.254 30.804 198.793 30.708C202.564 30.0362 205.529 27.6499 206.783 24.2786C207.453 22.4777 207.62 19.396 207.15 17.5213C206.219 13.8066 203.373 11.023 199.575 10.1104C198.205 9.78137 197.365 9.7327 193.053 9.7327H188.103V20.3077ZM213.41 20.3077V30.8826H214.506H215.601V27.5136V24.1446H219.167H222.732L225.066 27.5136L227.401 30.8826H228.572H229.743L228.42 28.9641C227.693 27.9091 226.58 26.2905 225.947 25.3674L224.796 23.689L225.826 23.1597C227.21 22.4487 227.799 21.8864 228.587 20.521C229.234 19.4003 229.251 19.3162 229.251 17.1258C229.251 14.4229 228.932 13.4661 227.58 12.1086C225.553 10.0724 224.2 9.73925 217.943 9.73551L213.41 9.7327V20.3077ZM241.503 10.1538C241.396 10.3854 239.296 15.1231 236.836 20.682L232.363 30.789L233.273 30.847C233.773 30.8789 234.291 30.8656 234.425 30.8173C234.559 30.769 235.198 29.4994 235.844 27.9957L237.02 25.2622L242.785 25.3116L248.549 25.3612L249.742 28.1219L250.934 30.8826H252.074H253.213L248.522 20.3077L243.832 9.7327H242.764C241.847 9.7327 241.669 9.79203 241.503 10.1538ZM253.461 10.6685V11.6044H257.048H260.635V21.2435V30.8826H261.731H262.827V21.2435V11.6044H266.413H270V10.6685V9.7327H261.731H253.461V10.6685ZM52.585 10.3689C48.8796 11.3655 46.0837 13.8882 44.9047 17.2984C44.2356 19.2343 44.1467 22.4515 44.713 24.2382C46.2324 29.0313 50.432 32 55.6937 32C60.9461 32 65.1543 29.0214 66.6729 24.2284C67.1622 22.6845 67.165 19.3956 66.6786 17.8842C65.8376 15.2721 64.3485 13.2694 62.2459 11.9227C60.1235 10.5635 58.9405 10.2324 55.9926 10.1727C54.3736 10.14 53.181 10.2087 52.585 10.3689ZM0 21.0563V31.6313H2.8893H5.7786V28.8238V26.0163L8.51845 26.0118C10.0255 26.0091 11.6518 25.9219 12.1327 25.8177C15.5396 25.08 17.9011 22.6768 18.3102 19.5315C18.7693 15.9994 17.324 13.0508 14.4013 11.5566C12.5248 10.5974 11.5688 10.4814 5.53749 10.4814H0V21.0563ZM22.5166 21.0563V31.6313H25.4059H28.2952V28.8238V26.0163H29.868H31.4408L33.3031 28.8238L35.1656 31.6313H38.2065C39.8789 31.6313 41.2472 31.5897 41.2472 31.539C41.2472 31.4883 40.2888 30.0039 39.1173 28.2404L36.9874 25.0338L37.573 24.6456C39.3817 23.4465 40.5572 21.6047 40.824 19.5521C41.2859 15.9985 39.8476 13.0544 36.9179 11.5566C35.0414 10.5974 34.0854 10.4814 28.0541 10.4814H22.5166V21.0563ZM198.521 11.8797C199.264 12.0277 200.312 12.374 200.851 12.6493C206.763 15.6717 206.806 24.9219 200.921 27.9302C199.266 28.7762 197.761 29.0051 193.832 29.0081L190.295 29.0109V20.3077V11.6044L193.732 11.6076C195.948 11.6098 197.65 11.7064 198.521 11.8797ZM222.815 11.8146C224.254 12.1011 225.161 12.563 226.003 13.4381C226.933 14.4055 227.241 15.3129 227.234 17.0721C227.228 18.976 226.513 20.3921 225.115 21.2742C223.821 22.0902 222.681 22.2729 218.88 22.2729H215.601V16.9386V11.6044H218.68C220.374 11.6044 222.234 11.6989 222.815 11.8146ZM175.836 18.0616L178.106 23.3023L173.311 23.3525C170.674 23.3802 168.481 23.3692 168.437 23.328C168.393 23.287 169.359 20.9481 170.583 18.1307C171.806 15.3133 172.896 12.7976 173.005 12.5402C173.246 11.9675 172.93 11.3517 175.836 18.0616ZM245.379 18.0616L247.648 23.3023L242.854 23.3525C240.217 23.3802 238.023 23.3693 237.98 23.3285C237.937 23.2879 238.901 20.9491 240.123 18.1313C241.346 15.3135 242.435 12.7976 242.545 12.5402C242.789 11.9677 242.472 11.3502 245.379 18.0616ZM57.4283 15.2642C58.6968 15.6702 59.8565 16.6682 60.5037 17.911C60.9405 18.7495 61.071 19.3022 61.1366 20.5916C61.2824 23.4584 60.3469 25.3215 58.1901 26.4598C57.2583 26.9515 56.8955 27.035 55.6993 27.0333C54.5276 27.0316 54.1237 26.9414 53.2271 26.481C51.0826 25.3797 50.1056 23.4463 50.2509 20.5916C50.3164 19.3022 50.447 18.7495 50.8837 17.911C52.1247 15.5283 54.8323 14.4334 57.4283 15.2642ZM10.9522 15.5817C12.1651 16.1658 12.5981 16.9736 12.5063 18.4807C12.3706 20.7104 11.3876 21.3363 8.02029 21.3367L5.7786 21.3371V18.2488V15.1606H7.92824C9.76563 15.1606 10.205 15.2218 10.9522 15.5817ZM33.4688 15.5817C34.5528 16.1037 35.0703 16.9648 35.0697 18.2458C35.0695 19.3443 34.604 20.3088 33.8102 20.8559C33.3282 21.1881 32.894 21.2529 30.7714 21.3096L28.2952 21.3756V18.2681V15.1606H30.4448C32.2822 15.1606 32.7216 15.2218 33.4688 15.5817Z" fill="black"/>
<path d="M112.9 7.4L102.708 0H77.2L87.8473 7.4H112.9Z" fill="#008000"/>
</svg>
