<svg width="27" height="27" viewBox="0 0 27 27" fill="none" xmlns="http://www.w3.org/2000/svg" preserveAspectRatio="none">
<path d="M26.1218 13.4789C26.1962 20.387 20.6563 26.0474 13.7482 26.1218C6.84011 26.1961 1.17969 20.6563 1.10533 13.7482C1.03096 6.84007 6.57081 1.17965 13.4789 1.10529C15.7532 1.0808 17.8923 1.66482 19.7413 2.70583C20.0102 2.85723 20.8246 3.4677 20.4287 4.07565C20.0895 4.59652 19.4775 4.50943 19.0096 4.23458C17.4125 3.29627 15.5399 2.75106 13.4969 2.77305C7.25247 2.84027 2.70587 7.48582 2.77309 13.7302C2.84031 19.9746 9.00493 24.5049 13.7303 24.454C18.4556 24.4031 24.5213 19.7412 24.4541 13.4968C24.4359 11.8103 23.995 10.1539 23.2152 8.66639C22.7954 7.8657 21.9629 6.79904 22.7085 6.2878C23.2211 5.9363 23.7623 6.27494 23.9909 6.62633C25.3123 8.58503 26.0945 10.9395 26.1218 13.4789Z" fill="#2986F3"/>
<path fill-rule="evenodd" clip-rule="evenodd" d="M21.203 3.69193C21.5487 3.18437 22.2404 3.05314 22.748 3.39881C23.2555 3.74449 23.3868 4.43617 23.0411 4.94373L14.7924 17.0554C14.7301 17.1885 14.6402 17.3115 14.5233 17.4152C14.064 17.8229 13.3612 17.781 12.9536 17.3217L9.12773 13.0111C8.72009 12.5518 8.76196 11.8491 9.22125 11.4414C9.68053 11.0338 10.3833 11.0757 10.7909 11.535L13.66 14.7675L21.203 3.69193Z" fill="#2986F3"/>
</svg>
