<svg width="51" height="50" viewBox="0 0 51 50" fill="none" xmlns="http://www.w3.org/2000/svg">
<path d="M46.7615 25.2335C46.7615 36.9447 37.2677 46.4385 25.5565 46.4385C21.0896 46.4385 16.9453 45.0573 13.5274 42.6987L6.27929 44.5108L8.17863 37.3882C5.76686 33.9464 4.35156 29.7553 4.35156 25.2335C4.35156 13.5224 13.8454 4.02856 25.5565 4.02856C37.2677 4.02856 46.7615 13.5224 46.7615 25.2335Z" fill="url(#paint0_linear)"/>
<path fill-rule="evenodd" clip-rule="evenodd" d="M25.5555 49.9729C39.2186 49.9729 50.2947 38.8968 50.2947 25.2338C50.2947 11.5707 39.2186 0.494629 25.5555 0.494629C11.8925 0.494629 0.816406 11.5707 0.816406 25.2338C0.816406 29.6707 1.98444 33.8348 4.0298 37.4354L0.816406 49.9729L13.7424 46.9756C17.2527 48.8869 21.2773 49.9729 25.5555 49.9729ZM25.5555 46.1669C37.1166 46.1669 46.4886 36.7948 46.4886 25.2338C46.4886 13.6727 37.1166 4.30065 25.5555 4.30065C13.9945 4.30065 4.62243 13.6727 4.62243 25.2338C4.62243 29.6975 6.01958 33.835 8.40043 37.2326L6.52544 44.2639L13.6806 42.4751C17.0548 44.8034 21.1459 46.1669 25.5555 46.1669Z" fill="white"/>
<path d="M19.3702 13.7477C18.782 12.5662 17.8797 12.6708 16.9681 12.6708C15.339 12.6708 12.7988 14.6222 12.7988 18.2538C12.7988 21.2302 14.1104 24.4882 18.5298 29.362C22.7948 34.0655 28.3989 36.4987 33.0513 36.4159C37.7036 36.333 38.6608 32.3295 38.6608 30.9775C38.6608 30.3782 38.289 30.0792 38.0328 29.998C36.4474 29.2371 33.5233 27.8194 32.858 27.553C32.1926 27.2866 31.8453 27.6469 31.6293 27.8429C31.026 28.4179 29.83 30.1124 29.4205 30.4935C29.011 30.8747 28.4004 30.6818 28.1464 30.5377C27.2115 30.1625 24.6766 29.035 22.656 27.0763C20.1571 24.6539 20.0104 23.8205 19.5396 23.0786C19.163 22.4851 19.4394 22.121 19.5773 21.9618C20.1157 21.3406 20.8591 20.3815 21.1925 19.9048C21.5259 19.4282 21.2612 18.7046 21.1024 18.2538C20.4194 16.3154 19.8408 14.6928 19.3702 13.7477Z" fill="white"/>
<defs>
<linearGradient id="paint0_linear" x1="44.1109" y1="9.3298" x2="4.35156" y2="46.4385" gradientUnits="userSpaceOnUse">
<stop stop-color="#5BD066"/>
<stop offset="1" stop-color="#27B43E"/>
</linearGradient>
</defs>
</svg>
