<svg width="40" height="40" viewBox="0 0 40 40" fill="none" xmlns="http://www.w3.org/2000/svg">
<path d="M0.816406 13.8661C0.816406 9.18562 0.816406 6.8454 1.72728 5.05771C2.52851 3.48521 3.80699 2.20673 5.37949 1.4055C7.16718 0.494629 9.5074 0.494629 14.1878 0.494629H26.445C31.1254 0.494629 33.4656 0.494629 35.2533 1.4055C36.8258 2.20673 38.1043 3.48521 38.9055 5.05771C39.8164 6.8454 39.8164 9.18562 39.8164 13.8661V26.1232C39.8164 30.8036 39.8164 33.1439 38.9055 34.9316C38.1043 36.504 36.8258 37.7825 35.2533 38.5838C33.4656 39.4946 31.1254 39.4946 26.445 39.4946H14.1878C9.5074 39.4946 7.16718 39.4946 5.37949 38.5838C3.80699 37.7825 2.52851 36.504 1.72728 34.9316C0.816406 33.1439 0.816406 30.8036 0.816406 26.1232V13.8661Z" fill="url(#paint0_linear)"/>
<path d="M14.5057 8.59826C13.9038 7.35107 12.9804 7.46148 12.0476 7.46148C10.3806 7.46148 7.78125 9.52146 7.78125 13.3553C7.78125 16.4973 9.12332 19.9367 13.6457 25.0817C18.01 30.0471 23.7446 32.6157 28.5053 32.5283C33.2661 32.4408 34.2455 28.2144 34.2455 26.7871C34.2455 26.1545 33.865 25.8389 33.6028 25.7531C31.9805 24.9499 28.9884 23.4533 28.3075 23.1721C27.6267 22.8909 27.2712 23.2712 27.0503 23.4781C26.4329 24.0851 25.209 25.8739 24.79 26.2763C24.3709 26.6786 23.7462 26.475 23.4862 26.3229C22.5295 25.9268 19.9356 24.7365 17.868 22.6688C15.3109 20.1116 15.1608 19.2318 14.679 18.4486C14.2936 17.8221 14.5764 17.4376 14.7176 17.2697C15.2685 16.6138 16.0292 15.6013 16.3704 15.0982C16.7116 14.595 16.4407 13.8311 16.2782 13.3553C15.5793 11.309 14.9872 9.59601 14.5057 8.59826Z" fill="white"/>
<defs>
<linearGradient id="paint0_linear" x1="20.3164" y1="0.494629" x2="20.3164" y2="39.4946" gradientUnits="userSpaceOnUse">
<stop stop-color="#5AF575"/>
<stop offset="1" stop-color="#13BD2C"/>
</linearGradient>
</defs>
</svg>
