<svg width="73" height="75" viewBox="0 0 73 75" fill="none" xmlns="http://www.w3.org/2000/svg">
<path d="M64.7891 41.6483C64.7891 39.2438 64.31 37.3239 64.0198 36.382L64.0198 36.3815L64.0146 36.3646C63.7723 35.5847 63.1944 34.9552 62.4302 34.6371L62.4289 34.6366C59.2352 33.3511 57.1683 32.4641 55.7472 31.8544C55.201 31.6199 54.7501 31.4265 54.3674 31.2671C52.9876 30.6924 52.4872 30.5578 51.6081 30.5578C50.928 30.5578 50.2645 30.6903 49.6367 30.9517L49.6815 31.0592L49.6367 30.9517L40.7862 34.637C40.0219 34.9551 39.4438 35.5845 39.2012 36.3655L39.2011 36.3657C38.9117 37.3016 38.427 39.23 38.427 41.6482C38.427 48.144 41.7951 54.1217 48.8716 58.5938C50.5413 59.6494 52.6725 59.6504 54.3444 58.5938L54.2822 58.4953L54.3444 58.5938C61.4364 54.1114 64.7891 48.1288 64.7891 41.6483ZM52.836 56.7078C52.0694 57.1921 51.1487 57.1935 50.3804 56.7079C43.9888 52.6676 41.0295 47.3561 41.0295 41.6482C41.0295 39.5013 41.4565 37.8009 41.7101 36.9813C41.7594 36.8224 41.85 36.7496 41.8903 36.7328C45.423 35.2863 47.5613 34.3799 48.8998 33.8125C49.3151 33.6364 49.6534 33.493 49.9325 33.3763C50.5238 33.1288 50.8439 33.0033 51.0672 32.9388C51.2832 32.8764 51.4061 32.8717 51.6081 32.8717C51.8086 32.8717 51.9314 32.8766 52.1479 32.9393C52.3716 33.004 52.6928 33.13 53.285 33.3776C53.5671 33.4956 53.9094 33.6406 54.3302 33.8189C55.6705 34.3867 57.8066 35.2918 61.326 36.7327C61.3661 36.7497 61.4564 36.8223 61.5058 36.9803C61.7599 37.8012 62.1869 39.5016 62.1869 41.6485C62.1867 47.3455 59.2385 52.6598 52.836 56.7078Z" fill="#8E64CC" stroke="#8E64CC" stroke-width="0.232959"/>
<path d="M63.3985 72.1082L15.8137 72.1082C18.04 69.9997 17.9829 67.6875 17.9464 66.2119C17.9403 65.9648 17.9348 65.7412 17.9407 65.546L17.9407 65.5425L17.9407 56.2458C17.9407 56.2045 17.9381 56.1638 17.9335 56.1241L17.9335 5.58624C17.9335 4.01113 19.4685 2.69631 21.3994 2.69631L66.6564 2.69631C68.4981 2.69631 69.9604 3.95027 69.9604 5.4505L69.9604 66.62C69.9603 69.6277 67.0366 72.1082 63.3985 72.1082ZM66.6564 0.28031L21.3992 0.28031C17.9452 0.28031 15.0992 2.6422 15.0992 5.58624L15.0992 55.0378L7.7538 55.0378C3.97564 55.0378 0.865942 57.6212 0.865942 60.8374L0.865942 67.3796C0.865942 71.3374 4.69457 74.5238 9.35614 74.5238L19.3735 74.5238C35.8777 74.5238 51.8326 74.5238 63.3987 74.5242C68.5598 74.5242 72.7947 70.9967 72.7947 66.6198L72.7947 5.45065C72.7945 2.58134 70.0211 0.28031 66.6564 0.28031ZM10.8676 71.9574C7.0307 72.7544 3.70022 70.3549 3.70022 67.3796L3.70022 60.8374C3.70022 58.9901 5.4988 57.454 7.7538 57.454L15.1003 57.454L15.1066 67.3794C15.1066 69.5645 13.3166 71.4272 10.8676 71.9574Z" fill="#8E64CC" stroke="#8E64CC" stroke-width="0.232959"/>
<path d="M59.4091 39.2483L59.4091 39.2484C59.9644 39.6878 60.0523 40.4873 59.6037 41.0336L59.6037 41.0336L52.2253 50.0128L52.2253 50.0128C51.7169 50.6314 50.9538 50.9755 50.1757 50.9755C49.5041 50.9755 48.8505 50.7218 48.3603 50.2649L45.3624 47.472L45.3624 47.472C44.8446 46.9894 44.8232 46.1856 45.3151 45.6773C45.8057 45.1702 46.6208 45.1499 47.1374 45.6305C48.5061 46.888 49.2473 47.5908 49.6603 47.9825C49.7199 48.0389 49.7726 48.0889 49.8194 48.1331C50.008 48.3115 50.0942 48.3905 50.1426 48.4261C50.153 48.4338 50.1594 48.4377 50.1629 48.4396L59.4091 39.2483ZM59.4091 39.2483C58.855 38.8099 58.0441 38.895 57.5965 39.4392C54.078 43.6991 52.2371 45.9551 51.2633 47.1485C51.149 47.2886 51.0466 47.4141 50.9549 47.5264C50.5169 48.0628 50.3242 48.2965 50.2311 48.3977C50.2134 48.417 50.2007 48.4299 50.1916 48.4384M59.4091 39.2483L50.1916 48.4384M50.1916 48.4384C50.1874 48.4383 50.1829 48.4384 50.1784 48.4387L50.1916 48.4384Z" fill="#8E64CC" stroke="#8E64CC" stroke-width="0.232959"/>
<path d="M64.3456 17.1011L23.512 17.1011C22.7494 17.1011 22.0949 17.6236 22.0949 18.3091C22.0949 18.9947 22.7494 19.5171 23.512 19.5171L64.3456 19.5171C65.1082 19.5171 65.7626 18.9947 65.7626 18.3091C65.7628 17.6236 65.1083 17.1011 64.3456 17.1011Z" fill="#8E64CC" stroke="#8E64CC" stroke-width="0.232959"/>
<path d="M63.9872 24.3387L40.2288 24.3387C39.4662 24.3387 38.8117 24.8611 38.8117 25.5467C38.8117 26.2322 39.4662 26.7547 40.2288 26.7547L63.9872 26.7547C64.7498 26.7547 65.4042 26.2322 65.4042 25.5467C65.4042 24.8611 64.75 24.3387 63.9872 24.3387Z" fill="#8E64CC" stroke="#8E64CC" stroke-width="0.232959"/>
<path d="M63.6278 63.9309L39.8694 63.9309C39.1068 63.9309 38.4524 64.4534 38.4524 65.139C38.4524 65.8245 39.1068 66.347 39.8694 66.347L63.6278 66.347C64.3904 66.347 65.0449 65.8245 65.0449 65.139C65.0449 64.4534 64.3906 63.9309 63.6278 63.9309Z" fill="#8E64CC" stroke="#8E64CC" stroke-width="0.232959"/>
<path d="M35.0276 24.3386L23.1551 24.3386C22.3925 24.3386 21.738 24.8611 21.738 25.5466C21.738 26.2322 22.3925 26.7546 23.1551 26.7546L35.0276 26.7546C35.7902 26.7546 36.4447 26.2322 36.4447 25.5466C36.4447 24.8611 35.7902 24.3386 35.0276 24.3386Z" fill="#8E64CC" stroke="#8E64CC" stroke-width="0.232959"/>
<path d="M32.7577 32.1979L23.1516 32.1979C22.389 32.1979 21.7346 32.7203 21.7346 33.4059C21.7346 34.0914 22.389 34.6139 23.1516 34.6139L32.7577 34.6139C33.5203 34.6139 34.1748 34.0914 34.1748 33.4059C34.1748 32.7203 33.5203 32.1979 32.7577 32.1979Z" fill="#8E64CC" stroke="#8E64CC" stroke-width="0.232959"/>
<path d="M32.7577 40.0563L23.1516 40.0563C22.389 40.0563 21.7346 40.5787 21.7346 41.2643C21.7346 41.9498 22.389 42.4723 23.1516 42.4723L32.7577 42.4723C33.5203 42.4723 34.1748 41.9498 34.1748 41.2643C34.1748 40.5787 33.5203 40.0563 32.7577 40.0563Z" fill="#8E64CC" stroke="#8E64CC" stroke-width="0.232959"/>
<path d="M35.0122 47.9155L23.1516 47.9155C22.389 47.9155 21.7346 48.4379 21.7346 49.1235C21.7346 49.809 22.389 50.3315 23.1516 50.3315L35.0122 50.3315C35.7748 50.3315 36.4292 49.809 36.4292 49.1235C36.4292 48.4379 35.7749 47.9155 35.0122 47.9155Z" fill="#8E64CC" stroke="#8E64CC" stroke-width="0.232959"/>
<path d="M35.0122 63.9308L23.1516 63.9308C22.389 63.9308 21.7346 64.4533 21.7346 65.1388C21.7346 65.8244 22.389 66.3468 23.1516 66.3468L35.0122 66.3468C35.7748 66.3468 36.4292 65.8244 36.4292 65.1388C36.4292 64.4533 35.7749 63.9308 35.0122 63.9308Z" fill="#8E64CC" stroke="#8E64CC" stroke-width="0.232959"/>
<path d="M23.1516 55.7748L39.217 55.7748C39.9798 55.7748 40.6343 56.2972 40.6341 56.9828L23.1516 55.7748ZM23.1516 55.7748C22.389 55.7748 21.7346 56.2972 21.7346 56.9828M23.1516 55.7748L21.7346 56.9828M21.7346 56.9828C21.7346 57.6683 22.389 58.1908 23.1516 58.1908M21.7346 56.9828L23.1516 58.1908M23.1516 58.1908L39.217 58.1908M23.1516 58.1908L39.217 58.1908M39.217 58.1908C39.9796 58.1908 40.6341 57.6683 40.6341 56.9828L39.217 58.1908Z" fill="#8E64CC" stroke="#8E64CC" stroke-width="0.232959"/>
<path d="M22.6311 11.7393H23.4278C23.5466 11.6275 23.6584 11.4807 23.7633 11.299C23.8681 11.1103 23.959 10.8762 24.0358 10.5967C24.1127 10.3171 24.1721 9.97815 24.214 9.57979C24.256 9.18143 24.2769 8.70969 24.2769 8.16456V5.83731H29.529V11.7393H30.7136V14.727H29.2145V13.1545H24.1302V14.727H22.6311V11.7393ZM27.9356 11.7393V7.24205H25.8284V8.38471C25.8284 8.86693 25.8145 9.28626 25.7865 9.64269C25.7586 9.99213 25.7201 10.2996 25.6712 10.5652C25.6223 10.8238 25.5594 11.0474 25.4825 11.2361C25.4056 11.4178 25.3218 11.5751 25.2309 11.7079V11.7393H27.9356ZM33.9574 13.2803C33.552 13.2803 33.1886 13.2139 32.8671 13.0812C32.5526 12.9484 32.2836 12.7562 32.0599 12.5046C31.8433 12.253 31.6756 11.949 31.5567 11.5926C31.4379 11.2361 31.3785 10.8378 31.3785 10.3975C31.3785 9.95718 31.4379 9.55882 31.5567 9.2024C31.6756 8.84597 31.8433 8.54545 32.0599 8.30084C32.2836 8.04925 32.5526 7.85706 32.8671 7.72427C33.1886 7.59148 33.552 7.52509 33.9574 7.52509C34.3627 7.52509 34.7227 7.59148 35.0372 7.72427C35.3586 7.85706 35.6277 8.04925 35.8444 8.30084C36.068 8.54545 36.2392 8.84597 36.358 9.2024C36.4768 9.55882 36.5362 9.95718 36.5362 10.3975C36.5362 10.8378 36.4768 11.2361 36.358 11.5926C36.2392 11.949 36.068 12.253 35.8444 12.5046C35.6277 12.7562 35.3586 12.9484 35.0372 13.0812C34.7227 13.2139 34.3627 13.2803 33.9574 13.2803ZM33.9574 12.0538C34.2649 12.0538 34.5025 11.9595 34.6702 11.7708C34.838 11.5821 34.9218 11.313 34.9218 10.9636V9.84187C34.9218 9.49243 34.838 9.22336 34.6702 9.03466C34.5025 8.84597 34.2649 8.75162 33.9574 8.75162C33.6499 8.75162 33.4123 8.84597 33.2445 9.03466C33.0768 9.22336 32.9929 9.49243 32.9929 9.84187V10.9636C32.9929 11.313 33.0768 11.5821 33.2445 11.7708C33.4123 11.9595 33.6499 12.0538 33.9574 12.0538ZM37.6417 7.65089H41.3632V8.85645H39.1932V13.1545H37.6417V7.65089ZM44.4508 13.2803C44.0454 13.2803 43.682 13.2139 43.3605 13.0812C43.046 12.9484 42.777 12.7562 42.5533 12.5046C42.3367 12.253 42.1689 11.949 42.0501 11.5926C41.9313 11.2361 41.8719 10.8378 41.8719 10.3975C41.8719 9.95718 41.9313 9.55882 42.0501 9.2024C42.1689 8.84597 42.3367 8.54545 42.5533 8.30084C42.777 8.04925 43.046 7.85706 43.3605 7.72427C43.682 7.59148 44.0454 7.52509 44.4508 7.52509C44.8561 7.52509 45.216 7.59148 45.5305 7.72427C45.852 7.85706 46.1211 8.04925 46.3377 8.30084C46.5614 8.54545 46.7326 8.84597 46.8514 9.2024C46.9702 9.55882 47.0296 9.95718 47.0296 10.3975C47.0296 10.8378 46.9702 11.2361 46.8514 11.5926C46.7326 11.949 46.5614 12.253 46.3377 12.5046C46.1211 12.7562 45.852 12.9484 45.5305 13.0812C45.216 13.2139 44.8561 13.2803 44.4508 13.2803ZM44.4508 12.0538C44.7583 12.0538 44.9959 11.9595 45.1636 11.7708C45.3314 11.5821 45.4152 11.313 45.4152 10.9636V9.84187C45.4152 9.49243 45.3314 9.22336 45.1636 9.03466C44.9959 8.84597 44.7583 8.75162 44.4508 8.75162C44.1433 8.75162 43.9056 8.84597 43.7379 9.03466C43.5702 9.22336 43.4863 9.49243 43.4863 9.84187V10.9636C43.4863 11.313 43.5702 11.5821 43.7379 11.7708C43.9056 11.9595 44.1433 12.0538 44.4508 12.0538ZM48.1351 7.65089H51.2696C51.7728 7.65089 52.1571 7.77669 52.4227 8.02828C52.6883 8.27988 52.8211 8.61534 52.8211 9.03466C52.8211 9.39109 52.7267 9.66715 52.538 9.86283C52.3493 10.0585 52.0558 10.1843 51.6574 10.2402V10.2926C52.573 10.3765 53.0307 10.7993 53.0307 11.5611C53.0307 12.0503 52.877 12.4382 52.5695 12.7247C52.262 13.0113 51.8357 13.1545 51.2905 13.1545H48.1351V7.65089ZM51.0075 12.0538C51.1473 12.0538 51.2591 12.0154 51.3429 11.9385C51.4268 11.8616 51.4687 11.7533 51.4687 11.6135V11.2885C51.4687 11.1488 51.4268 11.0404 51.3429 10.9636C51.2591 10.8797 51.1473 10.8378 51.0075 10.8378H49.6447V12.0538H51.0075ZM50.8188 9.91525C50.9586 9.91525 51.0669 9.87681 51.1438 9.79993C51.2206 9.72306 51.2591 9.61473 51.2591 9.47496V9.19191C51.2591 9.05214 51.2206 8.94381 51.1438 8.86693C51.0669 8.79006 50.9586 8.75162 50.8188 8.75162H49.6447V9.91525H50.8188ZM56.4081 13.2803C56.0028 13.2803 55.6393 13.2139 55.3179 13.0812C55.0034 12.9484 54.7343 12.7562 54.5107 12.5046C54.294 12.253 54.1263 11.949 54.0075 11.5926C53.8887 11.2361 53.8293 10.8378 53.8293 10.3975C53.8293 9.95718 53.8887 9.55882 54.0075 9.2024C54.1263 8.84597 54.294 8.54545 54.5107 8.30084C54.7343 8.04925 55.0034 7.85706 55.3179 7.72427C55.6393 7.59148 56.0028 7.52509 56.4081 7.52509C56.8135 7.52509 57.1734 7.59148 57.4879 7.72427C57.8094 7.85706 58.0784 8.04925 58.2951 8.30084C58.5187 8.54545 58.6899 8.84597 58.8088 9.2024C58.9276 9.55882 58.987 9.95718 58.987 10.3975C58.987 10.8378 58.9276 11.2361 58.8088 11.5926C58.6899 11.949 58.5187 12.253 58.2951 12.5046C58.0784 12.7562 57.8094 12.9484 57.4879 13.0812C57.1734 13.2139 56.8135 13.2803 56.4081 13.2803ZM56.4081 12.0538C56.7156 12.0538 56.9532 11.9595 57.121 11.7708C57.2887 11.5821 57.3726 11.313 57.3726 10.9636V9.84187C57.3726 9.49243 57.2887 9.22336 57.121 9.03466C56.9532 8.84597 56.7156 8.75162 56.4081 8.75162C56.1006 8.75162 55.863 8.84597 55.6953 9.03466C55.5275 9.22336 55.4437 9.49243 55.4437 9.84187V10.9636C55.4437 11.313 55.5275 11.5821 55.6953 11.7708C55.863 11.9595 56.1006 12.0538 56.4081 12.0538ZM60.0924 7.65089H61.6439V8.57341H61.6964C61.7732 8.2659 61.948 8.0143 62.2205 7.81862C62.5001 7.62293 62.8181 7.52509 63.1745 7.52509C63.8734 7.52509 64.401 7.7697 64.7574 8.25891C65.1139 8.74813 65.2921 9.46098 65.2921 10.3975C65.2921 11.334 65.1139 12.0503 64.7574 12.5465C64.401 13.0357 63.8734 13.2803 63.1745 13.2803C62.9928 13.2803 62.8216 13.2524 62.6608 13.1965C62.5001 13.1476 62.3533 13.0777 62.2205 12.9868C62.0947 12.889 61.9864 12.7771 61.8955 12.6514C61.8047 12.5186 61.7383 12.3788 61.6964 12.232H61.6439V15.2512H60.0924V7.65089ZM62.6608 12.0224C62.9543 12.0224 63.1955 11.921 63.3842 11.7183C63.5798 11.5087 63.6777 11.2291 63.6777 10.8797V9.92573C63.6777 9.57629 63.5798 9.30024 63.3842 9.09756C63.1955 8.8879 62.9543 8.78307 62.6608 8.78307C62.3673 8.78307 62.1227 8.85645 61.927 9.00322C61.7383 9.14299 61.6439 9.33868 61.6439 9.59027V11.2152C61.6439 11.4668 61.7383 11.6659 61.927 11.8127C62.1227 11.9525 62.3673 12.0224 62.6608 12.0224Z" fill="#8E64CC"/>
</svg>
