<svg width="81" height="79" viewBox="0 0 81 79" fill="none" xmlns="http://www.w3.org/2000/svg">
<path d="M12.7013 25.0101C9.89242 25.0101 7.24174 23.8845 5.23837 21.8411C3.23775 19.8001 2.10584 17.0734 2.05177 14.1634C1.99704 11.226 3.07827 8.43101 5.09634 6.29402C7.14423 4.12495 9.98674 2.88107 12.8946 2.88107H46.5972C47.9333 2.88107 49.1031 3.62134 49.7559 4.72544L59.4839 5.37039C59.9321 5.40025 60.2813 5.78664 60.2813 6.25332V7.34349H68.2678C71.4883 7.34349 74.156 9.84166 74.5737 13.0702H78.0746C78.5449 13.0702 78.9263 13.4663 78.9263 13.9549C78.9263 14.4434 78.5449 14.8396 78.0746 14.8396H74.5739C74.1562 18.068 71.4885 20.5662 68.268 20.5662H60.2815V21.6562C60.2815 22.1228 59.9323 22.5092 59.4841 22.5391L49.7451 23.1847C49.0899 24.2784 47.9259 25.0103 46.5972 25.0103H45.2311V30.4901C45.2311 30.9787 44.8498 31.3748 44.3794 31.3748H39.2825V32.6663C39.2825 33.1548 38.9011 33.551 38.4308 33.551H35.7312C33.9156 33.551 32.4279 34.9678 32.271 36.8467L31.0701 51.2142L41.7807 54.5391C44.2163 55.2953 45.8326 57.7541 45.624 60.3859L44.3524 76.4209C44.316 76.8798 43.947 77.233 43.5037 77.233H13.4265C12.9562 77.233 12.5748 76.8369 12.5748 76.3483V59.2515C12.5748 56.7509 13.5112 54.3993 15.2121 52.6295L16.3991 51.3942V28.8539C16.3991 26.7343 14.7402 25.0101 12.7013 25.0101ZM50.3057 13.0609H58.5781V10.2851H50.3057V13.0609ZM58.5781 14.8303H50.3057V17.6058H58.5781V14.8303ZM50.3057 6.5351V9.20346H58.5781V7.08339L50.3057 6.5351ZM72.9291 13.9546C72.9291 11.587 71.2843 9.61231 69.1195 9.19517V18.7141C71.2843 18.2972 72.9291 16.3223 72.9291 13.9546ZM60.4565 18.7966H67.4161V9.11289H60.4563L60.4565 18.7966ZM50.3057 21.3742L58.5781 20.8259V18.7966L50.3057 18.7141V21.3742ZM43.5277 29.6052V25.0101H39.2825V29.6052H43.5277ZM35.7312 31.7813H37.5791V24.1254C37.5791 23.6368 37.9605 23.2407 38.4308 23.2407H46.5972C47.7027 23.2407 48.6023 22.3062 48.6023 21.1576V6.73349C48.6023 5.58493 47.7027 4.65047 46.5972 4.65047H12.8946C10.4413 4.65047 8.04212 5.70105 6.31234 7.53282C4.61727 9.32787 3.70894 11.6706 3.75472 14.1291C3.8484 19.1531 7.86156 23.2404 12.7013 23.2404C15.6794 23.2404 18.1025 25.7585 18.1025 28.8536V46.693H29.738L30.5738 36.6934C30.808 33.8931 33.0249 31.7813 35.7312 31.7813ZM29.3884 50.8745L29.5901 48.4626H18.1025V50.8745H29.3884ZM30.5759 61.4013C30.5759 59.7803 29.3062 58.4614 27.7457 58.4614H25.1338C23.5731 58.4614 22.3034 59.7803 22.3034 61.4013V66.401H30.5759V61.4013ZM31.4276 68.1704H21.4517C20.9814 68.1704 20.6001 67.7742 20.6001 67.2857V61.9164H14.2782V72.6242H42.9443L43.7935 61.9164H32.2793V67.2857C32.2793 67.7742 31.8979 68.1704 31.4276 68.1704ZM42.7215 76.3552L42.804 73.8341H14.278L14.2802 76.3552H42.7215ZM14.2782 59.251V60.147H20.7685C21.2991 58.1582 23.0527 56.6921 25.134 56.6921H27.7459C29.827 56.6921 31.5807 58.1582 32.1113 60.147C32.1113 60.147 43.9046 60.1526 43.9297 60.155C44.0317 58.3843 42.9358 56.7442 41.2931 56.2342L29.7274 52.6441H17.6051L16.4178 53.8796C15.0379 55.3148 14.2782 57.2226 14.2782 59.251Z" fill="#8E64CC" stroke="#8E64CC" stroke-width="0.698876"/>
<path d="M13.4902 19.1307C10.656 19.1307 8.35049 16.7359 8.35049 13.7918C8.35049 10.848 10.656 8.45308 13.4902 8.45308H29.2496C32.0836 8.45308 34.3892 10.848 34.3892 13.7918C34.3892 16.7356 32.0836 19.1307 29.2496 19.1307H13.4902ZM10.0539 13.7918C10.0539 15.7598 11.5954 17.3613 13.4902 17.3613H16.4013V10.2225H13.4902C11.5956 10.2225 10.0539 11.8238 10.0539 13.7918ZM29.2494 10.2225H18.1045V13.2261H32.5744C32.1939 11.6854 30.8498 10.2225 29.2494 10.2225ZM32.5744 14.198H18.1047V17.3613H29.2496C30.8498 17.3613 32.1941 15.7389 32.5744 14.198Z" fill="#8E64CC" stroke="#8E64CC" stroke-width="0.698876"/>
<path d="M44.8574 9.20348C45.3398 9.20348 45.731 9.71397 45.731 10.3436V17.1379C45.731 17.7675 45.3398 18.278 44.8574 18.278C44.3749 18.278 43.9838 17.7675 43.9838 17.1379V10.3436C43.9838 9.71397 44.3749 9.20348 44.8574 9.20348Z" fill="#8E64CC" stroke="#8E64CC" stroke-width="0.698876"/>
<path d="M41.3618 9.20348C41.8442 9.20348 42.2354 9.71397 42.2354 10.3436V17.1379C42.2354 17.7675 41.8442 18.278 41.3618 18.278C40.8793 18.278 40.4882 17.7675 40.4882 17.1379V10.3436C40.4882 9.71397 40.8793 9.20348 41.3618 9.20348Z" fill="#8E64CC" stroke="#8E64CC" stroke-width="0.698876"/>
<path d="M37.8676 9.20348C38.3501 9.20348 38.7412 9.71397 38.7412 10.3436V17.1379C38.7412 17.7675 38.3501 18.278 37.8676 18.278C37.3852 18.278 36.994 17.7675 36.994 17.1379V10.3436C36.994 9.71397 37.3852 9.20348 37.8676 9.20348Z" fill="#8E64CC" stroke="#8E64CC" stroke-width="0.698876"/>
</svg>
