<svg width="84" height="79" viewBox="0 0 84 79" fill="none" xmlns="http://www.w3.org/2000/svg">
<path d="M13.8929 13.4628L13.8929 13.4627C15.1663 8.58589 18.8076 3.48166 23.1725 0.451788C23.5068 0.216179 23.9473 0.186586 24.3135 0.370336V0.370335C24.679 0.553387 24.9119 0.919824 24.9119 1.32329C24.9119 5.73363 27.1976 8.7232 29.8789 12.2241L29.8819 12.228C32.3641 15.469 35.1469 19.1024 36.2275 24.4106C36.3578 25.0505 35.8891 25.545 35.3708 25.6771C35.1082 25.744 34.8208 25.7228 34.5758 25.576C34.329 25.4281 34.14 25.1614 34.0597 24.7662C33.0767 19.9843 30.5691 16.7073 28.1151 13.5034L28.1098 13.4965C25.7437 10.4083 23.4691 7.43952 22.8669 3.42814C19.6516 6.20936 17.0021 10.2502 16.0262 13.9893C15.1505 17.3516 15.0761 21.0275 15.0761 24.2207C15.0761 24.8157 14.5806 25.2912 13.976 25.2912C11.7346 25.2912 10.0412 24.2982 8.80308 22.9317C7.61988 21.6257 6.85088 19.9776 6.40792 18.5217C5.1992 19.8194 3.45399 22.6255 3.29202 28.1056L3.29191 28.1095L3.29184 28.1095C3.27285 28.4097 3.27285 28.6806 3.27289 28.9549L3.27289 28.991L3.15641 28.991H3.27289C3.27289 35.0713 6.98926 40.3252 12.3369 42.7341C11.4485 41.43 10.9087 39.8635 10.9087 38.1579C10.9087 38.0083 10.9096 37.8551 10.9184 37.7011C10.9816 35.4549 11.5626 34.0167 12.1672 33.1215C12.7714 32.2268 13.3946 31.881 13.5331 31.8122M13.8929 13.4628L13.585 31.9165M13.8929 13.4628C13.0269 16.789 12.8987 20.5161 12.8787 23.0235M13.8929 13.4628L12.995 23.0499M13.5331 31.8122C13.5331 31.8122 13.5332 31.8122 13.5332 31.8122L13.585 31.9165M13.5331 31.8122C13.5331 31.8123 13.533 31.8123 13.533 31.8123L13.585 31.9165M13.5331 31.8122C13.85 31.6539 14.2258 31.6585 14.5393 31.8162M13.585 31.9165C13.8684 31.7749 14.2055 31.7787 14.4869 31.9203M14.5393 31.8162C14.5393 31.8162 14.5393 31.8162 14.5393 31.8162L14.4869 31.9203M14.5393 31.8162C14.8559 31.9754 15.0741 32.275 15.1238 32.6201L15.1244 32.6246L15.1244 32.6246C15.1243 32.6238 15.1755 32.9498 15.3117 33.3644C15.4197 33.6933 15.578 34.0675 15.7994 34.3764M14.5393 31.8162L14.4869 31.9203M14.4869 31.9203L15.7994 34.3764M15.7994 34.3764C15.7966 34.4377 15.7941 34.4984 15.7918 34.5584C15.1983 33.8277 15.0102 32.6534 15.0085 32.6367L15.7994 34.3764ZM15.7994 34.3764C15.8347 34.4255 15.8715 34.473 15.9099 34.5184C15.9495 33.5382 16.0515 32.3773 16.3167 31.2997C16.8661 29.0776 18.4396 26.7502 20.326 25.3676M15.7994 34.3764C15.843 33.4222 15.9481 32.31 16.2036 31.2719L16.2037 31.2717C16.7598 29.0225 18.3492 26.672 20.2572 25.2737M20.2572 25.2737C20.2571 25.2737 20.257 25.2738 20.2569 25.2739L20.326 25.3676M20.2572 25.2737L20.326 25.3676M20.2572 25.2737C20.5889 25.0291 21.0365 24.9887 21.4075 25.1696C21.4075 25.1696 21.4074 25.1695 21.4073 25.1695L21.3567 25.2744M20.326 25.3676C20.6229 25.1486 21.0244 25.1122 21.3567 25.2744M21.3567 25.2744L21.4078 25.1697M21.3567 25.2744L21.4078 25.1697M21.4078 25.1697C21.7808 25.3498 22.0188 25.7204 22.0188 26.1288C22.0188 27.8575 22.8992 29.0774 23.9522 30.5278L23.9522 30.5278L23.9534 30.5294C25.1863 32.2286 26.5996 34.1765 26.8356 37.3255L26.8356 37.3256C26.8644 37.7151 26.8791 37.9283 26.8791 38.1578C26.8791 39.8636 26.3392 41.4302 25.4506 42.7345C26.3501 42.3291 26.8146 41.9985 27.2073 41.5865C27.4324 41.3503 27.6357 41.0855 27.8851 40.7573L27.9167 40.7158C28.1586 40.3975 28.4429 40.0234 28.8257 39.5699C29.3435 38.9562 30.0883 38.9066 30.5205 39.2746C30.7368 39.4589 30.863 39.7408 30.8374 40.0822C30.8121 40.4208 30.6386 40.8102 30.2735 41.2242C28.643 43.0728 27.1519 44.3402 25.3867 45.1432C23.6215 45.9462 21.5926 46.2803 18.8938 46.2803C9.07075 46.2803 1.07249 38.5273 1.07249 28.9908C1.07249 28.6666 1.07337 28.3396 1.09371 28.0119C1.23868 23.1189 2.55482 20.0497 3.8697 18.1882C5.18257 16.3297 6.48918 15.6823 6.61128 15.6249C6.92886 15.4726 7.29531 15.485 7.60529 15.642L7.60628 15.6425C7.91518 15.8027 8.12894 16.097 8.17981 16.4367M21.4078 25.1697L8.06462 16.454M8.17981 16.4367C8.17981 16.4368 8.17981 16.4368 8.17981 16.4368L8.06462 16.454M8.17981 16.4367C8.1798 16.4367 8.17979 16.4366 8.17978 16.4366L8.06462 16.454M8.17981 16.4367C8.1847 16.4689 8.41267 17.9248 9.13433 19.4743C9.84162 20.9929 11.0093 22.5728 12.8787 23.0235M8.06462 16.454C8.07411 16.5167 8.96526 22.2248 12.8778 23.1431C12.8781 23.1035 12.8784 23.0637 12.8787 23.0235M12.8787 23.0235C12.9171 23.0328 12.9559 23.0416 12.995 23.0499M12.995 23.0499C12.9947 23.0898 12.9944 23.1294 12.9941 23.1687L12.995 23.0499ZM12.5423 42.8249C12.5867 42.887 12.6319 42.9484 12.6778 43.0093C12.6071 42.9796 12.5366 42.9495 12.4664 42.9189L12.5423 42.8249ZM24.6544 37.6605L24.6545 37.6606C24.6669 37.8251 24.6791 37.9858 24.6791 38.1577C24.6789 41.4596 22.0803 44.1393 18.8938 44.1393C15.7073 44.1393 13.1087 41.4596 13.1087 38.1578L13.1087 38.1276C13.1086 38.0226 13.1085 37.9185 13.1161 37.7931L13.1162 37.7931L13.1163 37.7893C13.1509 36.5417 13.3716 35.6512 13.6285 35.0281C14.2287 36.1519 15.2556 37.1544 16.869 37.1544C17.4736 37.1544 17.9691 36.6788 17.9691 36.0838C17.9691 34.7249 17.9984 33.1709 18.3432 31.7719C18.6333 30.5985 19.3089 29.35 20.1736 28.3205C20.6126 29.6365 21.3965 30.7173 22.1509 31.7576L22.1548 31.763L22.1549 31.763C23.2919 33.3304 24.4505 34.9294 24.6544 37.6605Z" fill="#8E64CC" stroke="#8E64CC" stroke-width="0.232959"/>
<line x1="1.04649" y1="46.422" x2="38.3575" y2="2.23282" stroke="#8E64CC" stroke-width="1.74719" stroke-linecap="round"/>
<path d="M81.8235 58.3167L83.1863 54.9959C83.3884 54.5035 83.3337 53.9449 83.0401 53.5019C82.7463 53.0588 82.2555 52.7943 81.727 52.7943H76.5946C76.8355 51.2239 76.9597 49.6296 76.9597 48.0401V30.7068C76.9597 29.767 76.2958 28.9539 75.3813 28.7733L73.2791 28.358C71.8221 28.0701 70.3619 27.6936 68.939 27.2391C68.4892 27.0953 68.0091 27.3466 67.8666 27.8002C67.7241 28.2538 67.9732 28.7379 68.423 28.8816C69.9071 29.3558 71.4305 29.7485 72.9507 30.0488L75.053 30.4641C75.1679 30.4867 75.2511 30.5889 75.2511 30.7068V48.0401C75.2511 49.6303 75.1218 51.2262 74.867 52.7943H72.9039C73.1751 51.2314 73.3147 49.6373 73.3147 48.0401V32.8195C73.3147 32.4077 73.0255 32.0535 72.6248 31.9741L72.5783 31.9649C66.6467 30.7932 61.1257 28.4306 56.1687 24.9427L55.0125 24.1292C54.72 23.9233 54.3316 23.9224 54.0383 24.1266L52.7107 25.0505C47.7997 28.4678 42.3407 30.7871 36.4854 31.9438L36.3318 31.9741C35.9308 32.0533 35.6416 32.4076 35.6416 32.8195V40.2243C35.6416 40.7001 36.0241 41.0858 36.4959 41.0858C36.9677 41.0858 37.3503 40.7001 37.3503 40.2243V33.5252C43.2345 32.2892 48.726 29.9166 53.6812 26.4684L54.5208 25.884L55.1909 26.3554C60.1644 29.855 65.6836 32.2647 71.6059 33.5236V48.04C71.6059 49.6388 71.4595 51.2347 71.1705 52.7942H69.4753C68.5599 52.7942 67.8152 53.5452 67.8152 54.4683V59.2956H64.3415C66.4303 56.8914 67.598 53.8044 67.598 50.5519C67.598 49.3462 67.4369 48.1493 67.1194 46.9945C66.9933 46.536 66.522 46.2679 66.0679 46.3945C65.6132 46.5216 65.3469 46.9963 65.4728 47.4548C65.7492 48.4597 65.8893 49.5017 65.8893 50.5518C65.8893 53.924 64.4486 57.0932 61.9261 59.2955H59.6369C59.1651 59.2955 58.7826 59.6812 58.7826 60.157C58.7826 60.6327 59.1651 61.0184 59.6369 61.0184H74.664V68.4516C74.664 68.5431 74.5903 68.6174 74.4997 68.6174H34.4566C34.3659 68.6174 34.2922 68.5431 34.2922 68.4516V61.0184H55.9961C56.4679 61.0184 56.8504 60.6327 56.8504 60.157C56.8504 59.6812 56.4679 59.2955 55.9961 59.2955H46.9162C44.3938 57.0932 42.953 53.924 42.953 50.5518C42.953 44.1753 48.0977 38.9876 54.4213 38.9876C56.1166 38.9876 57.7496 39.3525 59.275 40.0721C59.7024 40.2735 60.2109 40.0879 60.4109 39.6569C60.6108 39.226 60.4265 38.7132 59.9991 38.5115C58.2455 37.6841 56.3688 37.2646 54.4214 37.2646C47.1556 37.2646 41.2445 43.2252 41.2445 50.5518C41.2445 53.8042 42.4121 56.8912 44.5007 59.2955H41.1412V54.4682C41.1412 53.5451 40.3964 52.7941 39.4811 52.7941H37.7918C37.4988 51.2242 37.3505 49.6171 37.3505 48.0067V43.8955C37.3505 43.4197 36.968 43.034 36.4962 43.034C36.0243 43.034 35.6418 43.4197 35.6418 43.8955V48.0067C35.6418 49.6153 35.7834 51.2206 36.0584 52.7941H34.0949C33.8363 51.2147 33.7052 49.6077 33.7052 48.0067V30.7068C33.7052 30.5889 33.7885 30.4867 33.9034 30.464L36.1131 30.0275C41.7059 28.9226 46.9202 26.7074 51.6109 23.4433L54.3923 21.5077C54.4761 21.4493 54.5885 21.4498 54.672 21.5084L57.2768 23.3413C59.6608 25.0188 62.2309 26.4455 64.9156 27.582C65.3507 27.7661 65.8514 27.5598 66.034 27.121C66.2166 26.6823 66.012 26.1774 65.5768 25.9933C63.0033 24.9039 60.5396 23.5362 58.2545 21.9283L55.6497 20.0955C54.9843 19.6274 54.0891 19.6252 53.4217 20.0897L50.6404 22.0252C46.144 25.1541 41.1457 27.2777 35.7846 28.3367L33.5749 28.7732C32.6603 28.9539 31.9966 29.767 31.9966 30.7068V48.0069C31.9966 49.607 32.1221 51.2125 32.3663 52.7943H27.2291C26.7006 52.7943 26.2097 53.0588 25.9161 53.5019C25.6224 53.9449 25.5677 54.5035 25.7698 54.9959L27.1326 58.3169L25.7698 61.6377C25.5677 62.1301 25.6224 62.6886 25.9161 63.1317C26.2098 63.5747 26.7007 63.8393 27.2291 63.8393H32.5835V68.452C32.5835 69.4934 33.4237 70.3407 34.4565 70.3407H41.4092C45.0009 73.8341 49.4242 76.4151 54.2242 77.8136L54.2977 77.8351C54.3753 77.8577 54.4551 77.869 54.535 77.869C54.6152 77.869 54.6955 77.8576 54.7733 77.8347C59.5729 76.429 63.9935 73.8407 67.5811 70.3407H74.4997C75.5325 70.3407 76.3727 69.4934 76.3727 68.452V63.8393H81.727C82.2556 63.8393 82.7464 63.5747 83.0401 63.1317C83.3337 62.6887 83.3884 62.1301 83.1863 61.6378L81.8235 58.3167ZM35.5916 59.2957L39.4323 55.6499V59.2957H35.5916ZM27.4225 62.1163L28.7319 58.9259C28.8931 58.5331 28.8931 58.1006 28.7319 57.7078L27.4225 54.5173H38.1328L33.1726 59.2258C32.7982 59.5812 32.5835 60.0824 32.5835 60.601V62.1163H27.4225ZM58.7223 70.3407C57.3897 71.1002 55.9878 71.7414 54.5261 72.2511C53.0512 71.7434 51.6369 71.1021 50.2925 70.3407H58.7223ZM54.5335 76.1097C50.6506 74.953 47.0335 72.9762 43.954 70.3407H47.0936C49.2795 71.9009 51.6888 73.1249 54.2606 73.9785C54.3474 74.0072 54.4376 74.0217 54.5277 74.0217C54.6189 74.0217 54.7103 74.007 54.798 73.9775C57.3495 73.1195 59.7399 71.8958 61.9089 70.3407H65.037C61.979 72.9668 58.3899 74.9438 54.5335 76.1097ZM69.5238 55.6499L73.3645 59.2957H69.5238V55.6499ZM80.2243 58.9257L81.5337 62.1162H76.3728V60.6009C76.3728 60.0824 76.1581 59.5812 75.7836 59.2257L70.8235 54.5172H81.5338L80.2244 57.7076C80.0631 58.1006 80.0631 58.533 80.2243 58.9257Z" fill="#8E64CC" stroke="#8E64CC" stroke-width="0.698876"/>
<path d="M52.7257 46.4116C52.1382 45.7581 51.1195 45.6965 50.4552 46.2744L48.905 47.6227C48.5831 47.9025 48.3913 48.2891 48.3649 48.7108C48.3385 49.1326 48.4808 49.5394 48.7654 49.856L52.5644 54.0824C53.058 54.6316 53.762 54.9552 54.4954 54.9702C54.5151 54.9707 54.5345 54.9708 54.5541 54.9708C55.27 54.9708 55.965 54.6795 56.4609 54.1714L68.8778 41.4478C69.4962 40.8142 69.475 39.8038 68.8309 39.1954L67.3538 37.8007C67.0418 37.506 66.6305 37.3479 66.1992 37.3572C65.7667 37.366 65.3635 37.5398 65.0639 37.8467L54.6338 48.5345L52.7257 46.4116ZM66.2365 39.1482L67.5079 40.3486L55.1898 52.971C55.0245 53.1404 54.7928 53.2376 54.5541 53.2376L54.5326 53.2374C54.2893 53.2324 54.0531 53.1219 53.8845 52.9344L50.1871 48.8211L51.5072 47.6729L53.9315 50.37C54.0986 50.5551 54.3388 50.6639 54.5904 50.6687C54.8429 50.6749 55.0863 50.5737 55.2604 50.3953L66.2365 39.1482Z" fill="#8E64CC" stroke="#8E64CC" stroke-width="0.698876"/>
</svg>
