<svg width="109" height="78" viewBox="0 0 109 78" fill="none" xmlns="http://www.w3.org/2000/svg">
<path d="M106.451 59.9946C106.185 59.9209 105.904 59.8917 105.625 59.8917H105C104.978 59.2467 104.947 58.6039 104.899 57.9729C104.204 48.99 100.789 40.6474 95.0235 33.8475C89.3564 27.1639 81.962 22.5942 73.6238 20.6138L73.1694 20.1615C70.8169 17.8216 67.446 16.5619 63.9181 16.7004C60.5167 16.836 57.3931 18.2618 55.2839 20.6214C46.9595 22.6054 39.5769 27.1714 33.9163 33.8468C28.1498 40.6472 24.7343 48.99 24.0394 57.9733C23.9909 58.6041 23.9606 59.247 23.939 59.8917H23.3135C23.0341 59.8917 22.754 59.9209 22.4874 59.9946C21.1912 60.3536 20.4637 61.4366 20.5769 62.5212L21.2502 68.9555C21.3796 70.1929 22.5476 71.1393 23.9455 71.1393H25.3569C27.8109 72.9795 30.5759 74.4254 33.5806 75.4342C36.7796 76.5082 40.1348 77.0529 43.5534 77.0529C43.6275 77.0529 47.0759 76.4379 48.7257 76.2C58.648 74.7686 68.72 74.7146 78.6618 76.0393C80.7011 76.3108 84.9197 77.0529 84.9938 77.0529C88.3795 77.0529 91.7019 76.5198 94.8691 75.4683C97.9103 74.4591 100.705 73.0004 103.188 71.1393H104.993C106.391 71.1393 107.559 70.1931 107.689 68.9557L108.362 62.5215C108.475 61.4368 107.747 60.3536 106.451 59.9946ZM102.869 58.9503C102.904 59.5735 102.942 61.1711 102.942 61.3411C102.942 63.8517 102.717 66.3542 102.274 68.789C99.3861 67.7076 96.3849 66.7563 93.2913 65.94V57.2477C96.3084 58.2658 99.5257 58.8583 102.869 58.9503ZM93.357 34.9643C98.6623 41.2211 101.889 48.852 102.725 57.0884C86.5338 56.5327 73.5349 43.364 73.5349 27.2535C73.5349 25.6883 73.6596 24.1311 73.9022 22.6095C81.4526 24.5819 88.1602 28.8353 93.357 34.9643ZM56.994 21.6854C58.7254 19.7988 61.259 18.6634 64.0115 18.5537C66.9074 18.4366 69.6804 19.4751 71.6138 21.3978L71.9406 21.723C71.6138 23.5284 71.4484 25.3866 71.4484 27.2535C71.4484 40.3643 79.6053 51.6418 91.2048 56.4643V65.4145C82.7797 63.3818 73.7271 62.3267 64.4708 62.3267C55.2121 62.3267 46.1577 63.3821 37.7343 65.414V56.4648C49.335 51.6425 57.4932 40.3645 57.4932 27.2535C57.493 25.3734 57.3252 23.5026 56.994 21.6854ZM25.996 61.3411C25.996 61.1713 26.0343 59.5735 26.0698 58.9503C29.4128 58.858 32.63 58.266 35.6472 57.2479V65.9395C32.5531 66.7558 29.5518 67.7073 26.6645 68.7887C26.2214 66.3488 25.996 63.8491 25.996 61.3411ZM35.5828 34.9634C40.7804 28.8339 47.4885 24.5807 55.0389 22.6095C55.2815 24.1311 55.4065 25.6883 55.4065 27.2535C55.4065 43.364 42.4062 56.5325 26.2135 57.0884C27.0501 48.8513 30.2767 41.2205 35.5828 34.9634ZM22.4636 69.0617L21.8462 62.5212C21.8243 62.3102 21.9365 62.166 22.0053 62.0987C22.0742 62.0314 22.2255 61.9187 22.4636 61.9187L24.7467 61.7409C24.7702 64.2771 24.8955 66.6622 25.3569 69.1364L23.0811 69.5616C22.7589 69.5616 22.4934 69.3467 22.4636 69.0617ZM94.139 73.7302C91.6351 74.5613 89.0262 75.0428 86.3653 75.1659C85.5721 75.2025 84.7781 75.1327 83.9997 74.9924C82.3324 74.6919 80.6463 74.4275 78.9709 74.2044C68.8152 72.8512 58.5269 72.9064 48.3913 74.3688C47.1129 74.5532 45.8249 74.7622 44.5478 74.9924C43.7681 75.133 42.9731 75.2028 42.1785 75.1657C39.4884 75.0407 36.8503 74.5488 34.318 73.6986C31.9292 72.8965 29.7052 71.794 27.6852 70.4209C38.6798 66.337 51.3605 64.1821 64.4706 64.1821C77.4757 64.1821 90.0589 66.3036 101 70.3281C98.9166 71.7636 96.6162 72.9078 94.139 73.7302ZM106.451 69.1758C106.421 69.461 105.987 69.676 105.665 69.676H103.74C104.201 67.2067 104.876 64.1154 104.899 61.5765L106.451 61.985C106.689 61.985 106.841 62.0977 106.909 62.1649C106.978 62.2322 107.26 62.3764 107.237 62.5875L106.451 69.1758Z" fill="#8E64CC" stroke="#8E64CC" stroke-width="1.11523"/>
<path d="M36.0612 50.4301C37.6969 50.4301 38.9305 48.7351 38.9305 46.4877C38.9305 44.2403 37.6969 42.5453 36.0612 42.5453C34.4254 42.5453 33.1919 44.2403 33.1919 46.4877C33.1919 48.7351 34.4254 50.4301 36.0612 50.4301ZM36.0612 43.9895C36.2516 44.0301 37.5324 45.1457 37.5324 46.4877C37.5324 47.8133 36.2589 49.4123 36.0612 49.4684C35.8635 49.4123 34.6045 47.8133 34.6045 46.4877C34.6045 45.1454 35.8849 44.0301 36.0612 43.9895Z" fill="#8E64CC" stroke="#8E64CC" stroke-width="1.11523"/>
<path d="M92.4264 50.4301C94.0622 50.4301 95.2957 48.7351 95.2957 46.4877C95.2957 44.2403 94.0622 42.5453 92.4264 42.5453C90.7907 42.5453 89.5571 44.2403 89.5571 46.4877C89.5571 48.7351 90.7907 50.4301 92.4264 50.4301ZM92.4264 43.9895C92.6168 44.0301 93.8977 45.1457 93.8977 46.4877C93.8977 47.8133 92.6241 49.4123 92.4264 49.4684C92.2287 49.4123 90.9697 47.8133 90.9697 46.4877C90.9697 45.1454 92.2501 44.0301 92.4264 43.9895Z" fill="#8E64CC" stroke="#8E64CC" stroke-width="1.11523"/>
<circle cx="28.9137" cy="29.4586" r="27.3385" fill="white" stroke="#8E64CC" stroke-width="3"/>
<path d="M27.0509 17.8506H19.4429L19.0829 23.1546H19.2749C19.4349 22.7546 19.6109 22.3946 19.8029 22.0746C20.0109 21.7386 20.2509 21.4586 20.5229 21.2346C20.7949 20.9946 21.1229 20.8106 21.5069 20.6826C21.8909 20.5546 22.3469 20.4906 22.8749 20.4906C23.5949 20.4906 24.2669 20.6106 24.8909 20.8506C25.5149 21.0906 26.0589 21.4426 26.5229 21.9066C26.9869 22.3546 27.3549 22.9146 27.6269 23.5866C27.8989 24.2426 28.0349 24.9866 28.0349 25.8186C28.0349 26.6666 27.8909 27.4586 27.6029 28.1946C27.3309 28.9146 26.9149 29.5386 26.3549 30.0666C25.8109 30.5946 25.1389 31.0106 24.3389 31.3146C23.5389 31.6026 22.6269 31.7466 21.6029 31.7466C20.7869 31.7466 20.0669 31.6586 19.4429 31.4826C18.8189 31.3066 18.2669 31.0746 17.7869 30.7866C17.3069 30.4826 16.8909 30.1386 16.5389 29.7546C16.1869 29.3706 15.8829 28.9626 15.6269 28.5306L18.2429 26.4666C18.6109 27.1226 19.0509 27.6826 19.5629 28.1466C20.0749 28.5946 20.7629 28.8186 21.6269 28.8186C22.4909 28.8186 23.1389 28.5706 23.5709 28.0746C24.0189 27.5786 24.2429 26.9226 24.2429 26.1066V25.9146C24.2429 25.1466 24.0189 24.5386 23.5709 24.0906C23.1229 23.6426 22.5069 23.4186 21.7229 23.4186C21.0669 23.4186 20.5229 23.5546 20.0909 23.8266C19.6749 24.0826 19.3549 24.3386 19.1309 24.5946L16.1789 24.1866L16.8029 14.7066H27.0509V17.8506ZM34.5776 29.9466V25.5306H30.5216V22.6986H34.5776V18.2826H37.6496V22.6986H41.7056V25.5306H37.6496V29.9466H34.5776ZM14.8895 44.4799H16.0595C16.1742 44.3308 16.2717 44.1415 16.352 43.9121C16.4437 43.6827 16.5183 43.4074 16.5757 43.0862C16.6445 42.7536 16.6961 42.3579 16.7305 41.899C16.7649 41.4402 16.7821 40.9011 16.7821 40.2817V37.4255H23.957V46.4586H21.4105V39.4042H19.2254V40.4193C19.2254 41.1993 19.1967 41.8876 19.1393 42.484C19.082 43.069 18.9959 43.5795 18.8812 44.0154C18.7665 44.4398 18.6289 44.8011 18.4683 45.0993C18.3192 45.3861 18.1529 45.6212 17.9693 45.8048C17.694 46.0801 17.3729 46.2751 17.0058 46.3898C16.6502 46.5045 16.2029 46.5618 15.6637 46.5618H14.8895V44.4799ZM30.1051 46.6651C29.4168 46.6651 28.8032 46.5561 28.2641 46.3381C27.7249 46.1087 27.2661 45.7933 26.8876 45.3918C26.5205 44.9789 26.2395 44.4799 26.0445 43.8949C25.861 43.3099 25.7692 42.6561 25.7692 41.9335C25.7692 41.2223 25.861 40.5799 26.0445 40.0064C26.228 39.4214 26.4976 38.9224 26.8532 38.5095C27.2202 38.0966 27.6676 37.7811 28.1952 37.5632C28.7229 37.3338 29.3251 37.2191 30.0018 37.2191C30.7474 37.2191 31.384 37.3452 31.9117 37.5976C32.4508 37.8499 32.8867 38.1883 33.2193 38.6127C33.5634 39.0371 33.8101 39.5304 33.9592 40.0924C34.1198 40.643 34.2001 41.2223 34.2001 41.8302V42.5873H28.4017V42.7249C28.4017 43.3214 28.5623 43.7974 28.8835 44.153C29.2046 44.4971 29.7093 44.6692 30.3976 44.6692C30.9252 44.6692 31.3554 44.5659 31.688 44.3595C32.0207 44.1415 32.3304 43.8834 32.6171 43.5852L33.8904 45.1682C33.4889 45.6384 32.9612 46.0055 32.3074 46.2693C31.6651 46.5331 30.931 46.6651 30.1051 46.6651ZM30.0535 39.0945C29.5373 39.0945 29.1301 39.2666 28.8318 39.6107C28.5451 39.9433 28.4017 40.3907 28.4017 40.9527V41.0904H31.5676V40.9355C31.5676 40.3849 31.4414 39.9433 31.189 39.6107C30.9482 39.2666 30.5696 39.0945 30.0535 39.0945ZM37.6867 39.4042H35.0714V37.4255H42.8484V39.4042H40.2331V46.4586H37.6867V39.4042Z" fill="#8E64CC"/>
</svg>
