<svg width="89" height="75" viewBox="0 0 89 75" fill="none" xmlns="http://www.w3.org/2000/svg">
<path fill-rule="evenodd" clip-rule="evenodd" d="M6.01294 13.9165H8.04877C3.49932 19.7875 1.01851 27.0205 1.01851 34.5549C1.01851 43.4833 4.44535 51.8773 10.6679 58.1906C16.8902 64.5039 25.1635 67.9808 33.9634 67.9808C37.6277 67.9808 41.2007 67.378 44.5723 66.2185C46.2488 65.6419 45.537 63.3459 43.648 63.7652C40.6051 64.8065 37.348 65.3711 33.9634 65.3711C17.2157 65.3711 3.59063 51.5471 3.59063 34.5549C3.59063 27.866 5.71174 21.4348 9.61392 16.1344V17.5701C9.61392 18.2906 10.1898 18.8749 10.9 18.8749C11.6101 18.8749 12.186 18.2906 12.186 17.5701V12.6117C12.186 11.8911 11.6101 11.3068 10.9 11.3068H6.01294C5.30277 11.3068 4.72687 11.8911 4.72687 12.6117C4.72687 13.3322 5.30277 13.9165 6.01294 13.9165ZM55.8298 13.1877C50.3012 7.36567 42.5419 3.73858 33.9634 3.73858C32.7248 3.73858 31.4782 3.81492 30.258 3.96536C29.5538 4.05175 28.9117 3.54299 28.8261 2.82754C28.7403 2.11222 29.2424 1.46163 29.9475 1.37472C31.2703 1.21162 32.6214 1.12889 33.9634 1.12889C42.7633 1.12889 51.0365 4.60578 57.2589 10.9191C59.4939 13.1877 56.9446 14.3636 55.8298 13.1877Z" fill="#8E64CC" stroke="#8E64CC" stroke-width="0.931835"/>
<path d="M33.9548 59.466C27.6644 59.466 21.3743 57.0368 16.5855 52.1781C7.00802 42.4608 7.00802 26.6494 16.5855 16.9322C20.5475 12.9125 25.7919 10.3697 31.3531 9.77203C36.832 9.18289 42.4026 10.4913 47.0377 13.4555C47.6387 13.8398 47.8186 14.6455 47.44 15.2551C47.0612 15.8649 46.2671 16.0474 45.6662 15.6633C36.929 10.0759 25.7187 11.3564 18.4044 18.7776C9.82977 27.4774 9.82977 41.6328 18.4044 50.3326C25.7926 57.829 37.1733 58.8661 45.6662 53.4439C48.4568 51.6587 49.1337 54.3134 47.0377 55.6521C43.0557 58.1947 38.5053 59.466 33.9548 59.466Z" fill="#8E64CC" stroke="#8E64CC" stroke-width="0.931835"/>
<path d="M17.2393 35.8808H15.6534C14.9432 35.8808 14.3673 35.2965 14.3673 34.576C14.3673 33.8554 14.9432 33.2711 15.6534 33.2711H17.2393C17.9495 33.2711 18.5254 33.8554 18.5254 34.576C18.5254 35.2965 17.9496 35.8808 17.2393 35.8808Z" fill="#8E64CC" stroke="#8E64CC" stroke-width="0.931835"/>
<path d="M52.2144 34.8207C52.2144 35.5412 51.6385 36.1255 50.9283 36.1255H49.3423C48.6321 36.1255 48.0562 35.5412 48.0562 34.8207C48.0562 34.1001 48.6321 33.5158 49.3423 33.5158H50.9283C51.6385 33.5158 52.2144 34.1 52.2144 34.8207Z" fill="#8E64CC" stroke="#8E64CC" stroke-width="0.931835"/>
<path d="M32.6515 17.5919V15.9828C32.6515 15.2622 33.2274 14.6779 33.9376 14.6779C34.6477 14.6779 35.2236 15.2622 35.2236 15.9828V17.5919C35.2236 18.3124 34.6477 18.8968 33.9376 18.8968C33.2274 18.8968 32.6515 18.3124 32.6515 17.5919Z" fill="#8E64CC" stroke="#8E64CC" stroke-width="0.931835"/>
<path d="M35.2661 51.5182V53.1273C35.2661 53.8478 34.6902 54.4321 33.98 54.4321C33.2699 54.4321 32.694 53.8478 32.694 53.1273V51.5182C32.694 50.7976 33.2699 50.2133 33.98 50.2133C34.6902 50.2133 35.2661 50.7975 35.2661 51.5182Z" fill="#8E64CC" stroke="#8E64CC" stroke-width="0.931835"/>
<path d="M40.4036 27.8738C40.9059 27.3644 41.72 27.3644 42.2225 27.8738C42.7247 28.3833 42.7247 29.2095 42.2225 29.7192L37.8639 34.1415C38.1979 34.773 38.3878 35.4942 38.3878 36.2596C38.3878 38.7383 36.4003 40.7548 33.9573 40.7548C31.5143 40.7548 29.5268 38.7383 29.5268 36.2596C29.5268 35.4942 29.7169 34.773 30.0508 34.1415L21.2563 25.2185C20.7541 24.709 20.7541 23.8828 21.2563 23.3731C21.7586 22.8637 22.5727 22.8637 23.0751 23.3731L31.8696 32.296C32.4921 31.9571 33.2029 31.7644 33.9573 31.7644C34.7117 31.7644 35.4225 31.9573 36.045 32.296L40.4036 27.8738ZM32.0989 36.2596C32.0989 37.2993 32.9326 38.1451 33.9573 38.1451C34.982 38.1451 35.8157 37.2993 35.8157 36.2596C35.8157 35.2199 34.982 34.3741 33.9573 34.3741C32.9326 34.3741 32.0989 35.2199 32.0989 36.2596Z" fill="#8E64CC" stroke="#8E64CC" stroke-width="0.931835"/>
<path d="M25.045 5.02757C24.7053 5.02757 24.3735 4.88912 24.1345 4.64525C23.8952 4.40255 23.7575 4.06707 23.7575 3.72272C23.7575 3.37955 23.8951 3.0429 24.1345 2.8002C24.3735 2.55763 24.7053 2.41788 25.045 2.41788C25.3832 2.41788 25.715 2.5575 25.9541 2.8002C26.1933 3.0429 26.3311 3.37955 26.3311 3.72272C26.3311 4.0672 26.1934 4.40255 25.9541 4.64525C25.715 4.88912 25.3832 5.02757 25.045 5.02757Z" fill="#8E64CC" stroke="#8E64CC" stroke-width="0.931835"/>
<path d="M51.025 20.7844C50.6853 20.7844 50.3535 20.6459 50.1144 20.402C49.8752 20.1593 49.7375 19.8239 49.7375 19.4795C49.7375 19.1363 49.8751 18.7997 50.1144 18.557C50.3535 18.3144 50.6853 18.1747 51.025 18.1747C51.3632 18.1747 51.695 18.3143 51.9341 18.557C52.1733 18.7997 52.311 19.1363 52.311 19.4795C52.311 19.824 52.1734 20.1593 51.9341 20.402C51.695 20.6459 51.3632 20.7844 51.025 20.7844Z" fill="#8E64CC" stroke="#8E64CC" stroke-width="0.931835"/>
<path d="M88.3595 70.1961L77.6154 25.0872C78.1916 24.5798 78.568 23.7607 78.568 22.8352C78.568 21.5809 77.8789 20.518 76.9343 20.1691L79.2268 10.5386C79.5722 9.08045 79.248 7.56858 78.337 6.39081C77.4265 5.21321 76.0598 4.53802 74.5875 4.53802H65.7784C63.5683 4.53802 61.6607 6.06384 61.1392 8.24891L58.3003 20.1779C57.3679 20.5358 56.6904 21.5912 56.6904 22.835C56.6904 23.5219 56.8979 24.1502 57.24 24.6367L46.3955 70.1961C46.3105 70.5526 46.5257 70.9115 46.8756 70.9978C46.9273 71.0104 46.979 71.0165 47.0297 71.0165C47.3237 71.0165 47.5906 70.8125 47.663 70.5088L49.9447 60.9227H65.888L63.6792 70.1959C63.5944 70.5523 63.8093 70.9113 64.1593 70.9976C64.2108 71.0102 64.2626 71.0164 64.3133 71.0164C64.6074 71.0164 64.8741 70.8124 64.9467 70.5086L67.3451 60.4392L69.7279 70.5078C69.7998 70.8119 70.067 71.0164 70.3614 71.0164C70.412 71.0164 70.4633 71.0104 70.5147 70.9978C70.8648 70.9118 71.0802 70.5533 70.9958 70.1968L70.6208 68.6125H86.64L87.0916 70.5088C87.164 70.8125 87.4309 71.0165 87.725 71.0165C87.7758 71.0165 87.8275 71.0104 87.879 70.9978C88.2294 70.9113 88.4444 70.5523 88.3595 70.1961ZM77.4803 30.1539H74.5567L75.6594 25.5232C75.8518 25.5863 76.053 25.6229 76.2617 25.6229C76.3081 25.6229 76.3534 25.6178 76.3993 25.6145L77.4803 30.1539ZM76.2615 24.295C75.7181 24.295 75.259 23.6264 75.259 22.835C75.259 22.0437 75.7181 21.3751 76.2615 21.3751C76.8049 21.3751 77.2638 22.0437 77.2638 22.835C77.2639 23.6264 76.8049 24.295 76.2615 24.295ZM62.4067 8.56194C62.7856 6.97455 64.172 5.86583 65.7784 5.86583H74.5875C75.6575 5.86583 76.6506 6.35646 77.3125 7.21206C77.9747 8.06817 78.2103 9.16693 77.9592 10.2262L75.5928 20.1678C74.6461 20.5152 73.955 21.5789 73.955 22.835C73.955 23.5336 74.1702 24.1713 74.5228 24.6609L73.2149 30.1539H61.5972L60.4018 25.0415C60.9493 24.5313 61.304 23.7333 61.304 22.835C61.304 21.5703 60.6032 20.5016 59.6465 20.1617L62.4067 8.56194ZM67.3526 54.7711L66.4964 51.1092H68.2246L67.3526 54.7711ZM68.5408 49.7814H66.1858L64.2018 41.2955H70.5615L68.5408 49.7814ZM54.6167 41.2955H62.8614L64.8456 49.7814H52.5968L54.6167 41.2955ZM56.9527 31.4817H60.5667L62.5509 39.9677H54.9328L56.9527 31.4817ZM58.9972 25.6228C59.0636 25.6228 59.1289 25.6175 59.1938 25.6107L60.2561 30.1538H57.2687L58.3725 25.5161C58.5716 25.5839 58.7806 25.6228 58.9972 25.6228ZM70.8777 39.9677H63.8914L61.9074 31.4817H72.8984L70.8777 39.9677ZM58.9972 21.3751C59.5406 21.3751 59.9995 22.0437 59.9995 22.835C59.9995 23.6264 59.5406 24.295 58.9972 24.295C58.4539 24.295 57.9948 23.6264 57.9948 22.835C57.9946 22.0438 58.4539 21.3751 58.9972 21.3751ZM50.2608 59.5951L52.2807 51.1092H65.156L66.6766 57.6123L66.2043 59.5951H50.2608ZM70.3066 67.2849L68.0176 57.6141L74.2405 31.4817H77.7965L86.3241 67.2849H70.3066Z" fill="#8E64CC" stroke="#8E64CC" stroke-width="1.16479"/>
</svg>
